<?xml version="1.0" encoding="utf-8"?>
<!-- Generator: Adobe Illustrator 16.0.0, SVG Export Plug-In . SVG Version: 6.00 Build 0)  -->
<!DOCTYPE svg PUBLIC "-//W3C//DTD SVG 1.1//EN" "http://www.w3.org/Graphics/SVG/1.1/DTD/svg11.dtd">
<svg version="1.1" id="Layer_1" xmlns="http://www.w3.org/2000/svg" xmlns:xlink="http://www.w3.org/1999/xlink" x="0px" y="0px"
	 width="332.773px" height="132.17px" viewBox="0 0 332.773 132.17" enable-background="new 0 0 332.773 132.17"
	 xml:space="preserve">
<rect fill="#333333" width="332.773" height="132.17"/>
<text transform="matrix(1 0 0 1 127.1758 58.2256)"><tspan x="0" y="0" fill="#FFFFFF" font-family="'GothamRounded-Medium'" font-size="27.6434">SECRETARÍA</tspan><tspan x="0" y="33.172" fill="#FFFFFF" font-family="'GothamRounded-Medium'" font-size="27.6434">DE FINANZAS</tspan></text>
<path fill="#FFFFFF" d="M100.413,18.603c7.132,0,12.928,5.778,12.928,12.879v69.491c0,7.104-5.796,12.883-12.928,12.883H31.051
	c-7.128,0-12.928-5.779-12.928-12.883V31.482c0-7.101,5.8-12.879,12.928-12.879H100.413 M100.413,14.96H31.051
	c-9.12,0-16.584,7.436-16.584,16.521v69.491c0,9.086,7.464,16.521,16.584,16.521h69.362c9.124,0,16.584-7.436,16.584-16.521V31.482
	C116.997,22.396,109.537,14.96,100.413,14.96"/>
<polygon fill="#FFFFFF" points="37.9,29.945 38.26,72.746 50.277,71.662 53.199,39.376 "/>
<path fill="#FFFFFF" d="M48.621,36.681c0,0,0-4.627-0.414-4.762c-0.406-0.138-2.455-3.536-2.455-3.536s-0.375,0.113-0.812,0.304
	c-0.551,0.035-1.237,0.375-1.237,0.375l-1.504,3.13h0.003L48.621,36.681z"/>
<polygon fill="#FFFFFF" points="31.831,72.87 38.264,72.87 38.02,29.948 31.34,34.661 "/>
<path fill="#BF6027" d="M44.336,62.771c0.339,0.173,0.3,0.589-0.067,0.709c-0.343,0.103-0.547-0.208-0.6-0.509
	c-0.082-0.371,0.063-0.756,0.096-1.123c0.039-0.52,0.031-0.929-0.234-1.398c-0.229-0.407-0.646-0.809-1.091-0.954
	c-0.4-0.124-0.918,0.152-1.219,0.385c-0.572,0.423-0.815,1.179-0.346,1.777l0.222-0.003c0.011-0.382,0.735-1.095,1.082-0.657
	c0.232,0.286,0.158,0.773,0.123,1.105c-0.057,0.513,0.085,0.916,0.424,1.276c0.558,0.622,1.508,1.053,1.988,0.095
	c0.11-0.202,0.177-0.516-0.063-0.671C44.46,62.686,44.251,62.715,44.336,62.771"/>
<path fill="#333333" d="M43.922,64.152L43.922,64.152c-0.413,0-0.896-0.258-1.286-0.693c-0.371-0.391-0.515-0.827-0.456-1.37
	l0.003-0.057c0.036-0.304,0.089-0.728-0.099-0.961c-0.05-0.06-0.11-0.092-0.184-0.092c-0.286,0-0.678,0.431-0.682,0.678
	l-0.003,0.116l-0.399,0.003l-0.039-0.045c-0.219-0.272-0.308-0.594-0.262-0.933c0.049-0.381,0.283-0.756,0.632-1.013
	c0.269-0.216,0.696-0.445,1.078-0.445c0.088,0,0.169,0.014,0.247,0.039c0.442,0.145,0.894,0.544,1.163,1.014
	c0.286,0.512,0.286,0.968,0.247,1.462c-0.01,0.124-0.036,0.244-0.057,0.368c-0.045,0.25-0.092,0.491-0.035,0.721
	c0.035,0.247,0.198,0.498,0.442,0.417c0.126-0.035,0.205-0.12,0.212-0.229c0.01-0.103-0.053-0.198-0.163-0.254
	c-0.092-0.057-0.099-0.124-0.078-0.17c0.011-0.039,0.05-0.109,0.188-0.109c0.099,0,0.219,0.042,0.321,0.102
	c0.29,0.188,0.258,0.551,0.106,0.827C44.562,64.042,44.188,64.152,43.922,64.152 M41.902,60.74c0.146,0,0.276,0.064,0.372,0.184
	c0.247,0.307,0.194,0.784,0.155,1.137l-0.007,0.053c-0.057,0.466,0.07,0.848,0.391,1.184c0.344,0.378,0.767,0.614,1.109,0.614
	c0.294,0,0.52-0.166,0.682-0.491c0.021-0.031,0.121-0.229,0.082-0.385c0.003,0.036,0.003,0.078,0.003,0.113
	c-0.018,0.201-0.163,0.371-0.386,0.444c-0.052,0.018-0.113,0.025-0.165,0.025c-0.333,0-0.534-0.315-0.587-0.629
	c-0.06-0.268-0.01-0.547,0.039-0.809c0.025-0.116,0.043-0.233,0.053-0.342c0.032-0.474,0.039-0.876-0.218-1.332
	c-0.237-0.417-0.64-0.773-1.021-0.901c-0.056-0.014-0.113-0.024-0.177-0.024c-0.325,0-0.703,0.212-0.933,0.392
	c-0.303,0.226-0.494,0.537-0.541,0.861c-0.036,0.248,0.032,0.491,0.181,0.7h0.057C41.083,61.182,41.518,60.74,41.902,60.74"/>
<path fill="#FFFFFF" d="M44.559,62.732c0.336,0.173,0.297,0.59-0.064,0.709c-0.339,0.1-0.554-0.212-0.6-0.512
	c-0.088-0.363,0.06-0.756,0.092-1.116c0.042-0.523,0.031-0.929-0.237-1.402c-0.226-0.407-0.639-0.809-1.088-0.958
	c-0.399-0.124-0.915,0.152-1.215,0.389c-0.572,0.423-0.824,1.179-0.351,1.776l0.227-0.003c0.007-0.382,0.731-1.095,1.081-0.657
	c0.227,0.286,0.155,0.774,0.12,1.105c-0.057,0.513,0.081,0.915,0.428,1.275c0.554,0.618,1.5,1.053,1.985,0.095
	c0.11-0.205,0.176-0.515-0.067-0.671C44.686,62.644,44.478,62.676,44.559,62.732"/>
<path fill="#333333" d="M44.142,64.113L44.142,64.113c-0.41,0-0.895-0.258-1.286-0.692c-0.368-0.393-0.513-0.827-0.449-1.37
	l0.003-0.053c0.036-0.308,0.081-0.731-0.102-0.964c-0.05-0.061-0.113-0.092-0.184-0.092c-0.283,0-0.682,0.431-0.686,0.675
	l-0.003,0.12L41.04,61.74l-0.039-0.042c-0.215-0.276-0.307-0.597-0.257-0.933c0.046-0.385,0.278-0.759,0.629-1.017
	c0.271-0.216,0.699-0.442,1.077-0.442c0.088,0,0.169,0.011,0.247,0.036c0.442,0.145,0.894,0.541,1.159,1.014
	c0.289,0.512,0.286,0.964,0.254,1.462c-0.015,0.124-0.036,0.244-0.057,0.363c-0.053,0.258-0.095,0.495-0.042,0.725
	c0.042,0.247,0.205,0.498,0.444,0.42c0.127-0.039,0.209-0.127,0.216-0.233c0.006-0.103-0.057-0.198-0.167-0.255
	c-0.085-0.057-0.095-0.123-0.081-0.169c0.01-0.039,0.057-0.109,0.188-0.109c0.102,0,0.226,0.042,0.325,0.102
	c0.293,0.187,0.258,0.551,0.106,0.83C44.788,64.004,44.41,64.113,44.142,64.113 M42.125,60.701c0.148,0,0.276,0.063,0.367,0.184
	c0.255,0.311,0.198,0.788,0.152,1.137l-0.003,0.053c-0.049,0.467,0.078,0.845,0.396,1.18c0.343,0.385,0.767,0.618,1.106,0.618
	c0.289,0,0.523-0.166,0.685-0.491c0.018-0.035,0.124-0.229,0.078-0.384c0.008,0.035,0.008,0.074,0.003,0.113
	c-0.013,0.201-0.162,0.371-0.378,0.445c-0.417,0.127-0.699-0.254-0.756-0.604c-0.063-0.269-0.01-0.548,0.042-0.809
	c0.019-0.12,0.04-0.233,0.05-0.343c0.035-0.473,0.039-0.869-0.219-1.324c-0.237-0.424-0.639-0.78-1.025-0.904
	c-0.049-0.018-0.113-0.025-0.173-0.025c-0.318,0-0.688,0.202-0.929,0.388c-0.304,0.223-0.499,0.541-0.544,0.862
	c-0.032,0.247,0.036,0.491,0.176,0.699h0.064C41.309,61.139,41.736,60.701,42.125,60.701"/>
<path fill="#FFFFFF" d="M82.733,41.973c0.109,3.681-2.628,6.743-6.115,6.849c-3.493,0.103-6.415-2.79-6.521-6.467
	c-0.116-3.677,2.625-6.744,6.111-6.849C79.698,35.402,82.623,38.295,82.733,41.973"/>
<path fill="#333333" d="M76.431,48.942c-3.508,0-6.348-2.893-6.46-6.584c-0.053-1.809,0.564-3.532,1.741-4.846
	c1.176-1.318,2.776-2.074,4.493-2.13c3.585-0.102,6.535,2.83,6.644,6.588c0.06,1.812-0.558,3.533-1.734,4.847
	c-1.179,1.321-2.773,2.077-4.5,2.126C76.559,48.942,76.494,48.942,76.431,48.942 M76.396,35.622c-0.06,0-0.12,0.003-0.184,0.003
	c-1.649,0.05-3.19,0.774-4.324,2.046c-1.134,1.268-1.727,2.932-1.674,4.681c0.105,3.624,2.932,6.46,6.396,6.351
	c1.653-0.053,3.19-0.774,4.324-2.045c1.134-1.268,1.727-2.933,1.674-4.681C82.503,38.416,79.772,35.622,76.396,35.622"/>
<path fill="#FFFFFF" d="M84.212,41.272c0.11,3.682-2.631,6.744-6.121,6.85c-3.49,0.103-6.408-2.794-6.521-6.464
	c-0.109-3.681,2.628-6.747,6.115-6.853C81.182,34.703,84.1,37.6,84.212,41.272"/>
<path fill="#333333" d="M77.911,48.246c-3.514,0-6.347-2.893-6.46-6.588c-0.116-3.737,2.685-6.867,6.235-6.969
	c0.063-0.007,0.126-0.007,0.19-0.007c3.508,0,6.348,2.897,6.454,6.588c0.057,1.812-0.558,3.536-1.738,4.85
	c-1.18,1.318-2.777,2.07-4.494,2.124C78.031,48.246,77.967,48.246,77.911,48.246 M77.876,34.925c-0.061,0-0.121,0-0.184,0.003
	c-3.416,0.103-6.111,3.12-6.001,6.722c0.105,3.628,2.932,6.464,6.4,6.354c1.653-0.049,3.189-0.777,4.323-2.045
	c1.134-1.271,1.731-2.931,1.678-4.684C83.983,37.716,81.252,34.925,77.876,34.925"/>
<path fill="#FFFFFF" d="M73.834,49.941c0.855,0.396,6.857-1.046,7.56-1.208c0.692-0.159,3.504-0.244,3.504-0.244
	s-5.787,13.193-5.67,21.735c-2.366,0.628-6.104-2.059-6.104-2.059l-3.002-15.593L73.834,49.941z"/>
<path fill="#333333" d="M78.441,70.439c-2.335,0-5.263-2.087-5.391-2.175l-0.039-0.024l-0.007-0.05l-3.016-15.67l3.836-2.72
	l0.06,0.032c0.205,0.092,1.271,0.237,7.298-1.169l0.183-0.045c0.7-0.163,3.413-0.244,3.53-0.247l0.19-0.004l-0.077,0.174
	c-0.061,0.13-5.769,13.268-5.656,21.685v0.092l-0.088,0.021C79.01,70.408,78.734,70.439,78.441,70.439 M73.235,68.098
	c0.356,0.248,3.086,2.103,5.207,2.103c0.24,0,0.462-0.025,0.667-0.071c-0.071-7.938,4.924-19.926,5.602-21.516
	c-0.639,0.021-2.716,0.105-3.292,0.236l-0.18,0.042c-4.373,1.021-6.161,1.237-6.896,1.237c-0.212,0-0.375-0.018-0.488-0.05
	l-3.606,2.55L73.235,68.098z"/>
<path fill="#333333" d="M73.834,49.941c0,0,0.961,17.612,5.394,20.283c-3.229,0.099-5.955-1.784-6.104-2.059
	c-2.738-6.917-3.002-15.593-3.002-15.593L73.834,49.941z"/>
<path fill="#333333" d="M78.985,70.348c-3.137,0-5.782-1.78-5.966-2.126c-2.723-6.875-3.013-15.557-3.017-15.645l-0.003-0.064
	l3.945-2.798l0.011,0.22c0.01,0.176,1.006,17.58,5.337,20.187l0.353,0.208l-0.409,0.014C79.147,70.348,79.07,70.348,78.985,70.348
	 M70.242,52.633c0.036,0.806,0.417,8.983,2.993,15.489c0.13,0.216,2.571,1.933,5.616,1.986c-3.963-3.105-4.999-17.874-5.122-19.943
	L70.242,52.633z"/>
<polygon fill="#FFFFFF" points="53.87,61.199 55.873,62.446 58.306,60.56 58.306,61.369 55.354,63.771 53.301,62.308 "/>
<path fill="#333333" d="M55.357,63.923l-2.205-1.576l0.671-1.316l2.045,1.268l2.565-1.981v1.108L55.357,63.923z M53.46,62.272
	l1.89,1.347l2.84-2.311v-0.504l-2.31,1.787l-1.964-1.218L53.46,62.272z"/>
<path fill="#FFFFFF" d="M65.816,56.06l3.882,1.547l4.462-3.25l0.332,1.434c0,0-2.72,3.73-3.893,3.963
	c-1.184,0.229-2.359-0.402-2.784-0.283C67.282,59.621,65.816,56.06,65.816,56.06"/>
<path fill="#333333" d="M70.044,59.927c-0.537,0-1.038-0.127-1.448-0.226c-0.332-0.084-0.622-0.152-0.749-0.116
	c-0.021,0.007-0.042,0.011-0.063,0.011c-0.597,0-1.742-2.671-2.074-3.49l-0.11-0.258l4.083,1.628l4.554-3.324l0.378,1.667
	l-0.032,0.046c-0.113,0.152-2.755,3.77-3.967,4.006C70.437,59.906,70.242,59.927,70.044,59.927 M67.943,59.338
	c0.184,0,0.428,0.057,0.71,0.131c0.396,0.095,0.887,0.215,1.391,0.215c0.188,0,0.365-0.014,0.531-0.045
	c1.049-0.213,3.472-3.455,3.783-3.872l-0.271-1.205l-4.367,3.187l-3.677-1.47c0.647,1.529,1.463,3.077,1.742,3.077
	C67.83,59.345,67.879,59.338,67.943,59.338"/>
<path fill="#FFFFFF" d="M40.948,62.411c0.047,1.557-1.112,2.86-2.596,2.904c-1.484,0.049-2.723-1.184-2.77-2.742
	c-0.049-1.561,1.116-2.864,2.6-2.907C39.662,59.617,40.902,60.85,40.948,62.411"/>
<path fill="#333333" d="M38.271,65.438c-1.526,0-2.759-1.261-2.808-2.861c-0.05-1.625,1.166-2.985,2.716-3.031
	c1.558-0.049,2.84,1.226,2.893,2.861c0.047,1.622-1.172,2.981-2.716,3.031H38.271z M38.257,59.782l-0.071,0.004
	c-1.417,0.042-2.529,1.289-2.483,2.783c0.046,1.469,1.173,2.627,2.568,2.627l0.074-0.003c1.417-0.039,2.526-1.286,2.483-2.78
	C40.786,60.938,39.652,59.782,38.257,59.782"/>
<path fill="#FFFFFF" d="M41.577,62.114c0.046,1.562-1.116,2.861-2.597,2.907c-1.483,0.046-2.726-1.184-2.773-2.744
	c-0.042-1.565,1.116-2.861,2.6-2.907C40.292,59.323,41.527,60.553,41.577,62.114"/>
<path fill="#333333" d="M38.9,65.141c-1.526,0-2.759-1.26-2.812-2.861c-0.046-1.625,1.169-2.985,2.713-3.031
	c1.568-0.045,2.843,1.226,2.9,2.862c0.018,0.787-0.248,1.533-0.759,2.104c-0.516,0.573-1.208,0.905-1.958,0.926
	C38.953,65.141,38.928,65.141,38.9,65.141 M38.885,59.486l-0.07,0.003c-1.417,0.042-2.53,1.292-2.484,2.783
	c0.039,1.478,1.173,2.629,2.568,2.629h0.074c0.685-0.021,1.314-0.321,1.788-0.844c0.47-0.527,0.717-1.215,0.696-1.939
	C41.411,60.645,40.281,59.486,38.885,59.486"/>
<path fill="#FFFFFF" d="M38.292,65.727l-5.031,9.803l12.176-1.134l-4.938-9.41C40.5,64.986,39.97,66.643,38.292,65.727"/>
<path fill="#333333" d="M33.057,75.671l5.189-10.105l0.106,0.06c0.318,0.173,0.611,0.258,0.876,0.258
	c0.848,0,1.156-0.922,1.159-0.937l0.084-0.271l5.154,9.823L33.057,75.671z M38.345,65.89l-4.875,9.498l11.777-1.098l-4.737-9.028
	c-0.173,0.325-0.561,0.865-1.282,0.865C38.953,66.127,38.659,66.049,38.345,65.89"/>
<path fill="#333333" d="M38.292,65.727c0,0-3.802,8.803,7.145,8.669c-2.953-4.641-4.938-9.41-4.938-9.41
	S39.677,66.649,38.292,65.727"/>
<path fill="#333333" d="M45.187,74.516c-3.395,0-5.694-0.879-6.842-2.61c-1.706-2.582-0.226-6.076-0.159-6.224l0.057-0.134
	l0.121,0.081c0.254,0.173,0.508,0.262,0.751,0.262c0.795,0,1.272-0.95,1.275-0.958l0.124-0.233l0.099,0.241
	c0.018,0.053,2.014,4.811,4.928,9.388l0.11,0.181l-0.213,0.007C45.354,74.516,45.269,74.516,45.187,74.516 M38.355,65.908
	c-0.25,0.654-1.265,3.663,0.194,5.867c1.096,1.657,3.328,2.497,6.637,2.497h0.029c-2.501-3.973-4.31-8.043-4.733-9.021
	c-0.205,0.322-0.678,0.876-1.368,0.876C38.864,66.127,38.61,66.053,38.355,65.908"/>
<polygon fill="#333333" points="41.397,67.095 44.191,67.642 46.067,65.883 46.403,66.423 44.163,68.903 42.008,68.579 "/>
<path fill="#FFFFFF" d="M44.208,69.034l-2.289-0.354l-0.717-1.749l2.953,0.58l1.936-1.815l0.463,0.741L44.208,69.034z
	 M42.096,68.469l2.021,0.307l2.134-2.37l-0.209-0.335l-1.808,1.699l-2.639-0.512L42.096,68.469z"/>
<path fill="#FFFFFF" d="M33.417,66.261c-0.226,0.388,0.079,0.773,0.516,0.661c0.399-0.106,0.409-0.551,0.275-0.876
	c-0.148-0.42-0.54-0.713-0.809-1.052c-0.364-0.502-0.614-0.908-0.65-1.543c-0.024-0.544,0.134-1.208,0.481-1.632
	c0.317-0.375,1.01-0.424,1.456-0.378c0.837,0.06,1.561,0.657,1.465,1.547l-0.223,0.134c-0.251-0.375-1.416-0.632-1.49,0.025
	c-0.046,0.427,0.332,0.869,0.579,1.176c0.378,0.473,0.491,0.964,0.385,1.533c-0.163,0.964-0.837,1.989-1.918,1.339
	c-0.237-0.131-0.502-0.396-0.36-0.706C33.241,66.254,33.467,66.151,33.417,66.261"/>
<path fill="#333333" d="M34.134,67.518c-0.229,0-0.47-0.078-0.713-0.222c-0.315-0.174-0.565-0.505-0.403-0.859
	c0.092-0.184,0.262-0.339,0.386-0.339h0.063l0.053,0.06c0.018,0.025,0.039,0.074,0.007,0.152c-0.078,0.131-0.084,0.262-0.031,0.36
	c0.074,0.124,0.236,0.184,0.406,0.135c0.11-0.028,0.181-0.082,0.219-0.173c0.07-0.138,0.06-0.343-0.029-0.543
	c-0.095-0.265-0.3-0.491-0.501-0.707c-0.095-0.102-0.198-0.212-0.283-0.314c-0.35-0.478-0.639-0.918-0.678-1.611
	c-0.029-0.628,0.166-1.3,0.509-1.713c0.328-0.381,0.932-0.438,1.265-0.438c0.102,0,0.201,0.003,0.292,0.014
	c0.505,0.039,0.968,0.262,1.258,0.607c0.251,0.297,0.364,0.667,0.322,1.074l-0.011,0.056l-0.37,0.229l-0.064-0.099
	c-0.116-0.173-0.501-0.325-0.819-0.325c-0.188,0-0.428,0.049-0.452,0.296c-0.039,0.357,0.279,0.749,0.512,1.035l0.039,0.05
	c0.399,0.498,0.526,1.018,0.414,1.635C35.385,66.692,34.901,67.518,34.134,67.518 M33.22,66.579
	c-0.085,0.279,0.276,0.487,0.321,0.509c0.212,0.126,0.41,0.191,0.593,0.191c0.625,0,1.025-0.725,1.151-1.442
	c0.106-0.547-0.01-1.003-0.36-1.441l-0.042-0.05c-0.258-0.318-0.615-0.756-0.562-1.211c0.032-0.321,0.291-0.512,0.689-0.512
	c0.346,0,0.745,0.146,0.943,0.346l0.084-0.053c0.021-0.314-0.078-0.604-0.271-0.837c-0.25-0.3-0.646-0.488-1.092-0.523
	c-0.084-0.007-0.176-0.014-0.271-0.014c-0.234,0-0.806,0.039-1.078,0.353c-0.304,0.368-0.48,0.979-0.452,1.552
	c0.031,0.621,0.293,1.017,0.625,1.473c0.081,0.099,0.169,0.198,0.268,0.3c0.215,0.233,0.441,0.474,0.551,0.784
	c0.11,0.258,0.121,0.53,0.024,0.735c-0.074,0.148-0.208,0.25-0.381,0.3c-0.286,0.074-0.544-0.028-0.671-0.247
	C33.248,66.727,33.227,66.653,33.22,66.579"/>
<path fill="#FFFFFF" d="M33.446,65.887c-0.229,0.385,0.074,0.773,0.516,0.664c0.399-0.113,0.413-0.554,0.272-0.879
	c-0.148-0.421-0.541-0.717-0.806-1.056c-0.364-0.499-0.615-0.904-0.65-1.543c-0.029-0.541,0.13-1.208,0.48-1.632
	c0.322-0.371,1.007-0.42,1.452-0.375c0.84,0.064,1.565,0.661,1.469,1.547l-0.223,0.134c-0.25-0.374-1.419-0.628-1.491,0.025
	c-0.05,0.427,0.333,0.869,0.58,1.172c0.381,0.473,0.495,0.968,0.381,1.536c-0.158,0.964-0.837,1.989-1.918,1.339
	c-0.236-0.131-0.498-0.396-0.353-0.706C33.27,65.876,33.491,65.777,33.446,65.887"/>
<path fill="#333333" d="M34.16,67.145c-0.223,0-0.467-0.079-0.714-0.219c-0.314-0.176-0.562-0.509-0.402-0.862
	c0.088-0.187,0.265-0.339,0.388-0.339h0.064l0.049,0.061c0.021,0.021,0.039,0.073,0.011,0.152c-0.077,0.134-0.088,0.261-0.028,0.36
	c0.067,0.123,0.233,0.18,0.402,0.134c0.106-0.028,0.181-0.082,0.219-0.173c0.071-0.138,0.06-0.347-0.028-0.544
	c-0.095-0.265-0.3-0.491-0.502-0.707c-0.099-0.102-0.202-0.212-0.286-0.318c-0.35-0.474-0.636-0.918-0.675-1.607
	c-0.031-0.628,0.167-1.3,0.512-1.717c0.321-0.381,0.933-0.434,1.261-0.434c0.106,0,0.202,0.003,0.293,0.014
	c0.505,0.036,0.964,0.262,1.257,0.607c0.251,0.297,0.365,0.664,0.318,1.074l-0.007,0.057l-0.371,0.226l-0.067-0.095
	c-0.113-0.173-0.499-0.325-0.816-0.325c-0.191,0-0.427,0.049-0.452,0.297c-0.042,0.353,0.279,0.748,0.509,1.034l0.043,0.05
	c0.399,0.502,0.53,1.018,0.406,1.636C35.41,66.314,34.93,67.145,34.16,67.145 M33.248,66.205c-0.084,0.279,0.279,0.488,0.322,0.509
	c0.212,0.126,0.406,0.191,0.59,0.191c0.628,0,1.031-0.725,1.151-1.445c0.109-0.547-0.008-1-0.36-1.438l-0.039-0.05
	c-0.262-0.317-0.619-0.756-0.57-1.211c0.039-0.321,0.297-0.512,0.696-0.512c0.35,0,0.742,0.146,0.943,0.343l0.085-0.053
	c0.021-0.311-0.078-0.6-0.272-0.833c-0.25-0.3-0.646-0.488-1.091-0.522c-0.089-0.008-0.177-0.015-0.272-0.015
	c-0.236,0-0.806,0.039-1.077,0.354c-0.307,0.367-0.484,0.978-0.452,1.551c0.028,0.622,0.289,1.017,0.625,1.473
	c0.082,0.095,0.169,0.198,0.265,0.3c0.216,0.233,0.445,0.477,0.551,0.784c0.113,0.255,0.121,0.526,0.029,0.731
	c-0.078,0.152-0.208,0.255-0.381,0.304c-0.286,0.074-0.552-0.028-0.675-0.247C33.28,66.349,33.255,66.279,33.248,66.205"/>
<path fill="#FFFFFF" d="M53.008,56.819c0.06,2.112-1.512,3.879-3.522,3.936c-2.003,0.063-3.681-1.601-3.745-3.716
	c-0.063-2.112,1.508-3.875,3.519-3.931C51.263,53.043,52.941,54.703,53.008,56.819"/>
<path fill="#333333" d="M49.38,60.877c-2.042,0-3.694-1.685-3.762-3.836c-0.029-1.053,0.328-2.053,1.014-2.822
	c0.688-0.767,1.621-1.208,2.625-1.24c2.091-0.057,3.804,1.649,3.868,3.836c0.071,2.176-1.562,3.999-3.632,4.062
	C49.458,60.877,49.419,60.877,49.38,60.877 M49.362,53.22c-0.035,0-0.063,0.003-0.099,0.003c-0.943,0.024-1.809,0.438-2.451,1.152
	c-0.643,0.724-0.979,1.67-0.95,2.66c0.06,2.056,1.671,3.663,3.625,3.599c1.936-0.053,3.461-1.766,3.398-3.811
	C52.824,54.802,51.277,53.22,49.362,53.22"/>
<path fill="#FFFFFF" d="M53.856,56.42c0.063,2.112-1.508,3.871-3.519,3.935c-2.006,0.06-3.684-1.604-3.744-3.719
	c-0.071-2.112,1.509-3.875,3.515-3.936C52.111,52.644,53.792,54.307,53.856,56.42"/>
<path fill="#333333" d="M50.239,60.475c-2.049,0-3.702-1.685-3.766-3.836c-0.066-2.172,1.562-3.996,3.632-4.059
	c2.091-0.061,3.808,1.646,3.872,3.836c0.035,1.053-0.328,2.052-1.011,2.818c-0.688,0.767-1.617,1.208-2.625,1.24H50.239
	 M50.21,52.82h-0.099c-1.935,0.057-3.461,1.773-3.401,3.812c0.066,2.06,1.667,3.664,3.627,3.603
	c0.937-0.028,1.802-0.441,2.445-1.158c0.646-0.717,0.985-1.664,0.95-2.653C53.675,54.399,52.128,52.82,50.21,52.82"/>
<path fill="#333333" d="M47.894,61.4c0.491,0.223,3.938-0.604,4.344-0.692c0.396-0.091,2.014-0.145,2.014-0.145
	s-3.328,7.587-3.257,12.494c-1.363,0.363-3.511-1.187-3.511-1.187l-1.724-8.955L47.894,61.4z"/>
<path fill="#333333" d="M50.542,73.234c-1.363,0-3.059-1.208-3.13-1.265l-0.039-0.024l-1.749-9.086l2.254-1.599l0.067,0.027
	c0.014,0.011,0.078,0.032,0.244,0.032c0.407,0,1.421-0.121,3.921-0.71l0.095-0.021c0.41-0.092,1.971-0.141,2.042-0.141l0.191-0.008
	l-0.082,0.173c-0.031,0.074-3.306,7.616-3.243,12.438v0.099l-0.092,0.021C50.878,73.216,50.712,73.234,50.542,73.234 M47.593,71.803
	c0.257,0.181,1.773,1.191,2.949,1.191c0.12,0,0.226-0.011,0.328-0.032c-0.021-4.465,2.706-11.113,3.197-12.271
	c-0.438,0.017-1.499,0.063-1.802,0.13l-0.099,0.022c-2.522,0.59-3.561,0.717-3.978,0.717c-0.116,0-0.208-0.011-0.275-0.029
	l-2.025,1.438L47.593,71.803z"/>
<path fill="#FFFFFF" d="M47.894,61.4c0,0,0.547,10.124,3.101,11.657c-1.858,0.056-3.427-1.024-3.511-1.187
	c-1.576-3.975-1.724-8.955-1.724-8.955L47.894,61.4z"/>
<path fill="#333333" d="M50.854,73.177c-1.826,0-3.367-1.045-3.477-1.247c-1.568-3.963-1.741-8.968-1.741-9.015l-0.003-0.063
	l2.367-1.674l0.014,0.216c0.003,0.102,0.572,10.078,3.041,11.562l0.354,0.208l-0.41,0.014H50.854z M45.88,62.972
	c0.024,0.594,0.261,5.189,1.717,8.859c0.095,0.131,1.413,1.024,3.031,1.106c-2.151-1.947-2.749-9.859-2.844-11.311L45.88,62.972z"/>
<path fill="#333333" d="M46.59,56.639c0,0,3.366,0.184,4.362-0.312c1.007-0.498,1.575-2.384,2.54-1.479
	c0.964,0.908-0.452-2.014-1.869-2.279C50.203,52.301,45.713,53.254,46.59,56.639"/>
<path fill="#333333" d="M48.002,56.794c-0.784,0-1.409-0.039-1.42-0.039l-0.089-0.007l-0.021-0.082
	c-0.25-0.968-0.099-1.812,0.452-2.521c0.997-1.276,3.035-1.742,4.168-1.742c0.208,0,0.392,0.018,0.551,0.05
	c1.159,0.215,2.324,2.112,2.285,2.522c-0.01,0.116-0.094,0.169-0.176,0.169c-0.088,0-0.19-0.064-0.346-0.208
	c-0.152-0.142-0.29-0.208-0.431-0.208c-0.314,0-0.625,0.37-0.954,0.769c-0.307,0.365-0.622,0.743-1.013,0.94
	C50.531,56.674,49.518,56.794,48.002,56.794 M46.689,56.522c0.197,0.01,0.706,0.031,1.313,0.031c1.459,0,2.462-0.116,2.9-0.332
	c0.346-0.173,0.643-0.534,0.933-0.88c0.364-0.438,0.713-0.858,1.141-0.858c0.205,0,0.399,0.095,0.597,0.275
	c0.036,0.039,0.07,0.068,0.096,0.089c-0.139-0.467-1.116-1.982-2.07-2.162c-0.138-0.028-0.315-0.042-0.505-0.042
	c-1.088,0-3.035,0.441-3.978,1.646C46.629,54.919,46.484,55.667,46.689,56.522"/>
<path fill="#FFFFFF" d="M52.062,52.866c0,0-2.48-1.915-3.247-1.419c-0.769,0.491-5.722,0.915-2.86,4.952"/>
<path fill="#333333" d="M45.854,56.47c-0.801-1.131-1.07-2.091-0.805-2.869c0.406-1.19,1.935-1.667,2.953-1.981
	c0.332-0.106,0.618-0.195,0.746-0.276c0.812-0.523,3.13,1.226,3.387,1.427l-0.148,0.191c-0.936-0.721-2.603-1.741-3.108-1.417
	c-0.155,0.099-0.442,0.187-0.809,0.304c-0.964,0.297-2.427,0.749-2.791,1.826c-0.24,0.703,0.021,1.596,0.774,2.656L45.854,56.47z"/>
<path fill="#FFFFFF" d="M45.883,52.933c-0.459,0.014-2.053,1.95-0.103,4.289l0.784-1.19C46.565,56.032,46.529,52.912,45.883,52.933"
	/>
<path fill="#333333" d="M45.791,57.423L45.686,57.3c-1.308-1.573-1.014-2.89-0.725-3.532c0.241-0.531,0.643-0.943,0.919-0.951
	c0.717,0,0.798,2.459,0.809,3.21v0.039L45.791,57.423z M45.894,53.054c-0.124,0.003-0.478,0.286-0.71,0.812
	c-0.265,0.572-0.526,1.734,0.586,3.154L46.441,56C46.424,54.569,46.201,53.054,45.894,53.054"/>
<path fill="#FFFFFF" d="M65.703,49.242c0.079,2.652-1.893,4.857-4.408,4.938c-2.515,0.071-4.621-2.01-4.701-4.663
	c-0.078-2.652,1.896-4.86,4.412-4.934C63.517,44.509,65.622,46.597,65.703,49.242"/>
<path fill="#FFFFFF" d="M61.161,54.301c-2.543,0-4.606-2.098-4.688-4.779c-0.042-1.314,0.41-2.561,1.264-3.515
	c0.852-0.961,2.014-1.504,3.261-1.547c2.611-0.07,4.744,2.053,4.826,4.78c0.042,1.313-0.407,2.561-1.261,3.515
	c-0.855,0.961-2.01,1.505-3.264,1.547C61.253,54.301,61.207,54.301,61.161,54.301 M61.136,44.699c-0.042,0-0.084,0-0.124,0.003
	c-1.187,0.036-2.285,0.555-3.098,1.463c-0.809,0.908-1.237,2.098-1.201,3.349c0.081,2.593,2.109,4.624,4.578,4.542
	c1.187-0.035,2.278-0.554,3.09-1.463c0.813-0.908,1.24-2.095,1.201-3.348C65.505,46.699,63.552,44.699,61.136,44.699"/>
<path fill="#FFFFFF" d="M66.77,48.74c0.078,2.65-1.893,4.857-4.412,4.938c-2.511,0.074-4.613-2.014-4.698-4.663
	c-0.077-2.653,1.897-4.864,4.412-4.935C64.583,44.003,66.689,46.088,66.77,48.74"/>
<path fill="#333333" d="M62.227,53.799c-2.547,0-4.606-2.102-4.687-4.783c-0.085-2.709,1.95-4.98,4.529-5.055
	c2.606-0.078,4.737,2.045,4.821,4.772c0.039,1.318-0.409,2.565-1.264,3.521c-0.852,0.954-2.01,1.505-3.264,1.541
	C62.319,53.799,62.273,53.799,62.227,53.799 M62.203,44.197h-0.127c-2.444,0.079-4.373,2.233-4.295,4.812
	c0.078,2.593,2.102,4.625,4.575,4.546c1.187-0.035,2.286-0.551,3.094-1.458c0.816-0.911,1.236-2.098,1.197-3.353
	C66.572,46.193,64.619,44.197,62.203,44.197"/>
<path fill="#FFFFFF" d="M61.825,44.756c0,0-0.473,6.153-5.687,7.704c-1.223,0.449,0.328-0.007,0.063-3.274
	C56.071,47.55,58.168,43.637,61.825,44.756"/>
<path fill="#333333" d="M55.696,52.729c-0.078,0-0.113-0.043-0.134-0.071c-0.053-0.078-0.015-0.163,0.063-0.329
	c0.181-0.388,0.604-1.307,0.456-3.137c-0.066-0.822,0.407-2.232,1.428-3.338c0.597-0.646,1.614-1.417,3.052-1.417
	c0.42,0,0.858,0.067,1.3,0.202l0.092,0.028l-0.011,0.095c0,0.064-0.533,6.263-5.769,7.814l-0.105,0.039
	C55.859,52.693,55.767,52.729,55.696,52.729 M60.56,44.675c-1.35,0-2.314,0.728-2.872,1.339c-0.972,1.042-1.427,2.409-1.371,3.158
	c0.159,1.893-0.283,2.851-0.474,3.261c-0.003,0.003-0.003,0.007-0.003,0.01c0.042-0.013,0.092-0.031,0.141-0.049l0.113-0.046
	c4.727-1.402,5.51-6.722,5.599-7.502C61.313,44.731,60.924,44.675,60.56,44.675"/>
<path fill="#FFFFFF" d="M62.744,44.346c0,0-0.47,6.157-5.685,7.708c-1.226,0.444,0.326-0.011,0.064-3.282
	C56.993,47.14,59.091,43.227,62.744,44.346"/>
<path fill="#333333" d="M56.618,52.315c-0.078,0-0.117-0.043-0.131-0.064c-0.053-0.084-0.014-0.162,0.053-0.328
	c0.187-0.392,0.604-1.314,0.459-3.137c-0.063-0.83,0.406-2.236,1.427-3.338c0.601-0.65,1.61-1.421,3.051-1.421
	c0.424,0,0.862,0.067,1.301,0.205l0.091,0.025l-0.007,0.092c-0.003,0.067-0.533,6.262-5.772,7.817l-0.106,0.042
	C56.784,52.284,56.685,52.315,56.618,52.315 M61.478,44.269c-1.349,0-2.307,0.728-2.875,1.339c-0.968,1.042-1.423,2.406-1.363,3.158
	c0.155,1.89-0.286,2.851-0.473,3.256c-0.003,0.003-0.003,0.007-0.003,0.011c0.039-0.018,0.088-0.032,0.141-0.05l0.113-0.042
	c4.73-1.406,5.51-6.726,5.599-7.506C62.227,44.321,61.846,44.269,61.478,44.269"/>
<path fill="#FFFFFF" d="M61.659,44.269c0,0,0.848,6.118,6.146,7.354c1.244,0.371-0.329,0.011-0.265-3.271
	C67.572,46.713,65.237,42.933,61.659,44.269"/>
<path fill="#333333" d="M68.243,51.856L68.243,51.856c-0.067,0-0.167-0.028-0.357-0.084l-0.117-0.036
	c-5.313-1.237-6.217-7.386-6.228-7.453l-0.014-0.092l0.088-0.036c0.516-0.19,1.028-0.289,1.522-0.289
	c1.392,0,2.406,0.738,3.014,1.353c1.01,1.027,1.522,2.352,1.508,3.133c-0.039,1.837,0.442,2.727,0.643,3.112
	c0.089,0.159,0.134,0.236,0.078,0.321C68.371,51.813,68.332,51.856,68.243,51.856 M68.243,51.62v0.12V51.62z M61.796,44.35
	c0.134,0.773,1.237,6.036,6.034,7.153l0.124,0.035c0.052,0.015,0.102,0.036,0.141,0.046c0-0.003,0-0.006,0-0.006
	c-0.215-0.403-0.709-1.333-0.678-3.229c0.018-0.73-0.47-1.978-1.438-2.956c-0.577-0.586-1.533-1.286-2.841-1.286
	C62.701,44.106,62.249,44.191,61.796,44.35"/>
<path fill="#FFFFFF" d="M61.2,54.876l-8.542,16.641l20.664-1.932l-8.378-15.966C64.944,53.619,64.039,56.431,61.2,54.876"/>
<path fill="#333333" d="M52.45,71.655l8.697-16.941l0.11,0.057c0.551,0.304,1.063,0.456,1.526,0.456
	c1.501,0,2.042-1.628,2.045-1.646l0.088-0.272l8.594,16.379L52.45,71.655z M61.249,55.042L52.86,71.376l20.272-1.893l-8.174-15.582
	c-0.233,0.495-0.883,1.565-2.176,1.565C62.308,55.466,61.796,55.325,61.249,55.042"/>
<path fill="#333333" d="M61.2,54.876c0,0-6.457,14.938,12.123,14.709c-5.008-7.877-8.378-15.966-8.378-15.966
	S63.548,56.448,61.2,54.876"/>
<path fill="#333333" d="M72.902,69.708c-5.73,0-9.616-1.48-11.541-4.39c-2.872-4.346-0.3-10.428-0.272-10.488l0.057-0.138
	l0.12,0.084c0.449,0.304,0.895,0.452,1.326,0.452c1.409,0,2.235-1.649,2.242-1.664l0.121-0.241l0.102,0.248
	c0.032,0.074,3.419,8.17,8.369,15.949l0.113,0.18l-0.216,0.003C73.185,69.705,73.044,69.708,72.902,69.708 M61.256,55.057
	c-0.35,0.904-2.265,6.242,0.304,10.127c1.904,2.875,5.793,4.327,11.547,4.281c-4.433-7.009-7.599-14.222-8.177-15.578
	c-0.293,0.484-1.103,1.586-2.338,1.586C62.153,55.473,61.704,55.333,61.256,55.057"/>
<path fill="#FFFFFF" d="M30.167,78.875c0,0,34.614-0.402,44.653-8.88c3.129-2.635,8.855-12.279,9.222-12.894
	c0.654-0.35,5.08-0.54,5.358,0.078c-0.3,0.632-7.87,10.371-8.308,10.827C67.501,86.271,50.005,82.394,30.485,83.591L30.167,78.875z"
	/>
<path fill="#333333" d="M80.097,53.87c0.421,1.219,1.283,3.529,1.565,4.313c0.265,0.257,19.651-11.145,19.637-11.668
	c-0.544-0.519-2.886-3.044-3.91-4.016C95.378,43.7,81.362,53.333,80.097,53.87"/>
<path fill="#FFFFFF" d="M64.22,80.475c7.906-3.398,9.075-3.762,16.768-12.469c0.615-0.64,5.575-7.62,7.616-10.731
	c-1.244,0.028-5.365,0.873-6.945,0.904c2.045-1.374,15.532-9.7,19.64-11.664c-0.074,1.65-0.109,10.523,0,12.653
	c-0.357-0.223-1.558-0.568-2.338-0.915c-7.545,8.514-11.812,13.285-13.705,14.783C79.317,78.639,73.132,78.713,64.22,80.475"/>
<path fill="#FFFFFF" d="M30.331,78.875l10.438-3.359c0,0,16.451,0.597,26.08-1.529c1.011-0.226,1.883-0.696,2.72-0.985
	c1.36-0.636,1.35-0.512,3.398-1.682c-1.105,0.763-2.274,1.509-3.677,2.215C63.672,76.339,54.326,78.487,30.331,78.875"/>
<path fill="#FFFFFF" d="M46.728,100.422c0,1.399,1.092,1.943,2.331,1.943c0.816,0,2.056-0.236,2.056-1.31
	c0-1.13-1.578-1.325-3.133-1.734c-1.564-0.414-3.147-1.018-3.147-2.989c0-2.151,2.042-3.179,3.95-3.179
	c2.196,0,4.225,0.958,4.225,3.384h-2.247c-0.079-1.265-0.975-1.586-2.084-1.586c-0.738,0-1.596,0.308-1.596,1.187
	c0,0.812,0.504,0.911,3.146,1.589c0.767,0.191,3.133,0.678,3.133,3.063c0,1.929-1.522,3.37-4.387,3.37
	c-2.335,0-4.522-1.148-4.493-3.737H46.728z"/>
<polygon fill="#FFFFFF" points="54.729,93.404 62.62,93.404 62.62,95.346 57.049,95.346 57.049,97.596 62.164,97.596 62.164,99.392 
	57.049,99.392 57.049,101.97 62.739,101.97 62.739,103.909 54.729,103.909 "/>
<polygon fill="#FFFFFF" points="64.297,93.404 71.712,93.404 71.712,95.346 66.618,95.346 66.618,97.773 71.034,97.773 
	71.034,99.571 66.618,99.571 66.618,103.909 64.297,103.909 "/>
<rect x="73.054" y="93.4" fill="#FFFFFF" width="2.321" height="10.509"/>
<polygon fill="#FFFFFF" points="77.41,93.404 79.716,93.404 84.117,100.451 84.146,100.451 84.146,93.404 86.318,93.404 
	86.318,103.909 83.998,103.909 79.614,96.876 79.582,96.876 79.582,103.909 77.41,103.909 "/>
</svg>
